<svg width="21" height="12" viewBox="0 0 21 12" fill="none" xmlns="http://www.w3.org/2000/svg">
<path d="M3 2.9375H5.875V-1.78814e-07H3V2.9375Z" fill="black"/>
<path d="M15 5.9375H17.875V3H15V5.9375Z" fill="black"/>
<path d="M3 5.9375H5.875V3H3V5.9375Z" fill="black"/>
<path d="M9 11.9375H11.875V9H9V11.9375Z" fill="black"/>
<path d="M12 8.9375H14.875V6H12V8.9375Z" fill="black"/>
<path d="M6 8.9375H8.875V6H6V8.9375Z" fill="black"/>
<path d="M0 2.9375H2.875V-1.78814e-07H0V2.9375Z" fill="black"/>
<path d="M15 2.9375H17.875V-1.78814e-07H15V2.9375Z" fill="black"/>
<path d="M18 2.9375H20.875V-1.78814e-07H18V2.9375Z" fill="black"/>
<path d="M12 2.9375H14.875V-1.78814e-07H12V2.9375Z" fill="black"/>
<path d="M9 2.9375H11.875V-1.78814e-07H9V2.9375Z" fill="black"/>
<path d="M6 2.9375H8.875V-1.78814e-07H6V2.9375Z" fill="black"/>
</svg>
